<svg width="866" height="80" viewBox="0 0 866 80" fill="none" xmlns="http://www.w3.org/2000/svg">
<path d="M3.48655 63V16.9325H22.5164C25.9654 16.9325 28.9421 17.6073 31.4465 18.957C33.9658 20.2916 35.9077 22.1586 37.2724 24.5579C38.637 26.9423 39.3193 29.7165 39.3193 32.8807C39.3193 36.0598 38.622 38.8416 37.2274 41.2259C35.8478 43.5953 33.8758 45.4323 31.3115 46.7369C28.7472 48.0416 25.703 48.6939 22.179 48.6939H10.4372V39.9213H20.1095C21.7891 39.9213 23.1912 39.6288 24.3159 39.044C25.4556 38.4592 26.3179 37.6419 26.9027 36.5922C27.4875 35.5275 27.78 34.2903 27.78 32.8807C27.78 31.4561 27.4875 30.2264 26.9027 29.1917C26.3179 28.142 25.4556 27.3322 24.3159 26.7623C23.1762 26.1925 21.7741 25.9076 20.1095 25.9076H14.621V63H3.48655ZM88.9746 39.9663C88.9746 45.0349 87.9998 49.3312 86.0504 52.8553C84.1009 56.3793 81.4616 59.0561 78.1325 60.8856C74.8184 62.7151 71.0994 63.6298 66.9755 63.6298C62.8367 63.6298 59.1102 62.7076 55.7961 60.8631C52.482 59.0186 49.8502 56.3418 47.9007 52.8328C45.9662 49.3087 44.999 45.0199 44.999 39.9663C44.999 34.8976 45.9662 30.6013 47.9007 27.0773C49.8502 23.5532 52.482 20.8764 55.7961 19.0469C59.1102 17.2174 62.8367 16.3027 66.9755 16.3027C71.0994 16.3027 74.8184 17.2174 78.1325 19.0469C81.4616 20.8764 84.1009 23.5532 86.0504 27.0773C87.9998 30.6013 88.9746 34.8976 88.9746 39.9663ZM77.5927 39.9663C77.5927 36.9671 77.1653 34.4328 76.3105 32.3633C75.4707 30.2939 74.2561 28.7268 72.6665 27.6621C71.0919 26.5974 69.1949 26.065 66.9755 26.065C64.7711 26.065 62.8742 26.5974 61.2846 27.6621C59.695 28.7268 58.4729 30.2939 57.6181 32.3633C56.7783 34.4328 56.3584 36.9671 56.3584 39.9663C56.3584 42.9654 56.7783 45.4998 57.6181 47.5692C58.4729 49.6386 59.695 51.2057 61.2846 52.2704C62.8742 53.3351 64.7711 53.8675 66.9755 53.8675C69.1949 53.8675 71.0919 53.3351 72.6665 52.2704C74.2561 51.2057 75.4707 49.6386 76.3105 47.5692C77.1653 45.4998 77.5927 42.9654 77.5927 39.9663ZM96.1614 63V16.9325H115.191C118.64 16.9325 121.617 17.5548 124.121 18.7995C126.641 20.0292 128.583 21.7987 129.947 24.1081C131.312 26.4024 131.994 29.1242 131.994 32.2733C131.994 35.4675 131.297 38.1817 129.902 40.4161C128.508 42.6355 126.528 44.3301 123.964 45.4998C121.399 46.6544 118.363 47.2318 114.854 47.2318H102.82V38.4592H112.784C114.464 38.4592 115.866 38.2417 116.991 37.8068C118.13 37.357 118.993 36.6821 119.577 35.7824C120.162 34.8676 120.455 33.698 120.455 32.2733C120.455 30.8487 120.162 29.6716 119.577 28.7418C118.993 27.7971 118.13 27.0923 116.991 26.6274C115.851 26.1475 114.449 25.9076 112.784 25.9076H107.296V63H96.1614ZM122.097 41.9457L133.569 63H121.422L110.175 41.9457H122.097ZM137.28 25.9751V16.9325H176.217V25.9751H162.248V63H151.271V25.9751H137.28ZM182.341 63V16.9325H213.787V25.9751H193.476V35.4225H211.786V44.4875H193.476V63H182.341ZM263.561 39.9663C263.561 45.0349 262.586 49.3312 260.637 52.8553C258.687 56.3793 256.048 59.0561 252.719 60.8856C249.405 62.7151 245.686 63.6298 241.562 63.6298C237.423 63.6298 233.696 62.7076 230.382 60.8631C227.068 59.0186 224.436 56.3418 222.487 52.8328C220.553 49.3087 219.585 45.0199 219.585 39.9663C219.585 34.8976 220.553 30.6013 222.487 27.0773C224.436 23.5532 227.068 20.8764 230.382 19.0469C233.696 17.2174 237.423 16.3027 241.562 16.3027C245.686 16.3027 249.405 17.2174 252.719 19.0469C256.048 20.8764 258.687 23.5532 260.637 27.0773C262.586 30.6013 263.561 34.8976 263.561 39.9663ZM252.179 39.9663C252.179 36.9671 251.752 34.4328 250.897 32.3633C250.057 30.2939 248.842 28.7268 247.253 27.6621C245.678 26.5974 243.781 26.065 241.562 26.065C239.357 26.065 237.46 26.5974 235.871 27.6621C234.281 28.7268 233.059 30.2939 232.204 32.3633C231.365 34.4328 230.945 36.9671 230.945 39.9663C230.945 42.9654 231.365 45.4998 232.204 47.5692C233.059 49.6386 234.281 51.2057 235.871 52.2704C237.46 53.3351 239.357 53.8675 241.562 53.8675C243.781 53.8675 245.678 53.3351 247.253 52.2704C248.842 51.2057 250.057 49.6386 250.897 47.5692C251.752 45.4998 252.179 42.9654 252.179 39.9663ZM270.748 63V16.9325H281.882V53.9575H301.047V63H270.748ZM318.631 16.9325V63H307.497V16.9325H318.631ZM369.788 39.9663C369.788 45.0349 368.813 49.3312 366.864 52.8553C364.914 56.3793 362.275 59.0561 358.946 60.8856C355.632 62.7151 351.913 63.6298 347.789 63.6298C343.65 63.6298 339.924 62.7076 336.61 60.8631C333.296 59.0186 330.664 56.3418 328.714 52.8328C326.78 49.3087 325.813 45.0199 325.813 39.9663C325.813 34.8976 326.78 30.6013 328.714 27.0773C330.664 23.5532 333.296 20.8764 336.61 19.0469C339.924 17.2174 343.65 16.3027 347.789 16.3027C351.913 16.3027 355.632 17.2174 358.946 19.0469C362.275 20.8764 364.914 23.5532 366.864 27.0773C368.813 30.6013 369.788 34.8976 369.788 39.9663ZM358.406 39.9663C358.406 36.9671 357.979 34.4328 357.124 32.3633C356.284 30.2939 355.07 28.7268 353.48 27.6621C351.906 26.5974 350.009 26.065 347.789 26.065C345.585 26.065 343.688 26.5974 342.098 27.6621C340.509 28.7268 339.286 30.2939 338.432 32.3633C337.592 34.4328 337.172 36.9671 337.172 39.9663C337.172 42.9654 337.592 45.4998 338.432 47.5692C339.286 49.6386 340.509 51.2057 342.098 52.2704C343.688 53.3351 345.585 53.8675 347.789 53.8675C350.009 53.8675 351.906 53.3351 353.48 52.2704C355.07 51.2057 356.284 49.6386 357.124 47.5692C357.979 45.4998 358.406 42.9654 358.406 39.9663ZM433.086 33.623H421.839C421.689 32.4683 421.382 31.4261 420.917 30.4963C420.452 29.5666 419.837 28.7718 419.072 28.112C418.307 27.4522 417.4 26.9498 416.351 26.6049C415.316 26.245 414.169 26.065 412.909 26.065C410.675 26.065 408.748 26.6124 407.128 27.7071C405.523 28.8018 404.286 30.3839 403.417 32.4533C402.562 34.5227 402.134 37.0271 402.134 39.9663C402.134 43.0254 402.569 45.5897 403.439 47.6592C404.324 49.7136 405.561 51.2657 407.151 52.3154C408.755 53.3501 410.652 53.8675 412.841 53.8675C414.071 53.8675 415.188 53.71 416.193 53.3951C417.213 53.0802 418.105 52.6228 418.87 52.023C419.65 51.4081 420.287 50.6658 420.782 49.7961C421.292 48.9113 421.644 47.9141 421.839 46.8044L433.086 46.8719C432.891 48.9113 432.299 50.9208 431.309 52.9002C430.334 54.8797 428.992 56.6867 427.283 58.3213C425.573 59.9408 423.489 61.2305 421.029 62.1902C418.585 63.15 415.781 63.6298 412.617 63.6298C408.448 63.6298 404.714 62.7151 401.415 60.8856C398.13 59.0411 395.536 56.3568 393.632 52.8328C391.727 49.3087 390.775 45.0199 390.775 39.9663C390.775 34.8976 391.742 30.6013 393.677 27.0773C395.611 23.5532 398.228 20.8764 401.527 19.0469C404.826 17.2174 408.523 16.3027 412.617 16.3027C415.406 16.3027 417.985 16.6926 420.354 17.4724C422.724 18.2372 424.808 19.3619 426.608 20.8464C428.407 22.3161 429.869 24.1231 430.994 26.2675C432.119 28.4119 432.816 30.8637 433.086 33.623ZM483.624 39.9663C483.624 45.0349 482.649 49.3312 480.7 52.8553C478.75 56.3793 476.111 59.0561 472.782 60.8856C469.468 62.7151 465.749 63.6298 461.625 63.6298C457.486 63.6298 453.76 62.7076 450.446 60.8631C447.131 59.0186 444.5 56.3418 442.55 52.8328C440.616 49.3087 439.649 45.0199 439.649 39.9663C439.649 34.8976 440.616 30.6013 442.55 27.0773C444.5 23.5532 447.131 20.8764 450.446 19.0469C453.76 17.2174 457.486 16.3027 461.625 16.3027C465.749 16.3027 469.468 17.2174 472.782 19.0469C476.111 20.8764 478.75 23.5532 480.7 27.0773C482.649 30.6013 483.624 34.8976 483.624 39.9663ZM472.242 39.9663C472.242 36.9671 471.815 34.4328 470.96 32.3633C470.12 30.2939 468.906 28.7268 467.316 27.6621C465.741 26.5974 463.844 26.065 461.625 26.065C459.421 26.065 457.524 26.5974 455.934 27.6621C454.345 28.7268 453.122 30.2939 452.268 32.3633C451.428 34.4328 451.008 36.9671 451.008 39.9663C451.008 42.9654 451.428 45.4998 452.268 47.5692C453.122 49.6386 454.345 51.2057 455.934 52.2704C457.524 53.3351 459.421 53.8675 461.625 53.8675C463.844 53.8675 465.741 53.3351 467.316 52.2704C468.906 51.2057 470.12 49.6386 470.96 47.5692C471.815 45.4998 472.242 42.9654 472.242 39.9663ZM490.811 16.9325H504.6L516.296 45.4548H516.836L528.533 16.9325H542.322V63H531.48V34.7027H531.097L520.03 62.7076H513.102L502.035 34.5452H501.653V63H490.811V16.9325ZM561.087 16.9325V63H549.953V16.9325H561.087ZM607.97 16.9325V63H598.523L580.19 36.4122H579.898V63H568.763V16.9325H578.346L596.476 43.4753H596.858V16.9325H607.97ZM645.889 31.9809C645.634 31.0362 645.259 30.2039 644.765 29.4841C644.27 28.7493 643.662 28.127 642.943 27.6171C642.223 27.1073 641.398 26.7249 640.468 26.4699C639.539 26.2 638.519 26.065 637.409 26.065C635.175 26.065 633.24 26.6049 631.606 27.6846C629.986 28.7643 628.734 30.3389 627.849 32.4083C626.964 34.4628 626.522 36.9596 626.522 39.8988C626.522 42.853 626.949 45.3723 627.804 47.4567C628.659 49.5412 629.896 51.1307 631.516 52.2254C633.135 53.3201 635.1 53.8675 637.409 53.8675C639.449 53.8675 641.173 53.5376 642.583 52.8777C644.007 52.2029 645.087 51.2507 645.822 50.021C646.557 48.7914 646.924 47.3443 646.924 45.6797L648.993 45.9271H637.791V37.8068H657.654V43.9027C657.654 48.0266 656.776 51.5581 655.022 54.4973C653.282 57.4365 650.883 59.6934 647.824 61.268C644.78 62.8425 641.278 63.6298 637.319 63.6298C632.925 63.6298 629.064 62.6776 625.735 60.7731C622.406 58.8686 619.811 56.1544 617.952 52.6303C616.092 49.0913 615.163 44.8924 615.163 40.0337C615.163 36.2548 615.725 32.9032 616.85 29.979C617.974 27.0398 619.541 24.5504 621.551 22.511C623.575 20.4716 625.915 18.927 628.569 17.8773C631.238 16.8275 634.11 16.3027 637.184 16.3027C639.853 16.3027 642.335 16.6851 644.63 17.4499C646.939 18.2147 648.978 19.2944 650.748 20.689C652.532 22.0836 653.98 23.7407 655.089 25.6601C656.199 27.5796 656.889 29.6865 657.159 31.9809H645.889ZM704.098 30.7438C703.948 29.0942 703.281 27.8121 702.096 26.8973C700.926 25.9676 699.254 25.5027 697.08 25.5027C695.64 25.5027 694.44 25.6901 693.481 26.065C692.521 26.4399 691.801 26.9573 691.321 27.6171C690.841 28.2619 690.594 29.0042 690.579 29.844C690.549 30.5338 690.684 31.1412 690.984 31.666C691.299 32.1909 691.749 32.6557 692.334 33.0606C692.933 33.4505 693.653 33.7954 694.493 34.0954C695.333 34.3953 696.277 34.6577 697.327 34.8826L701.286 35.7824C703.566 36.2773 705.575 36.9371 707.314 37.7619C709.069 38.5866 710.539 39.5689 711.723 40.7086C712.923 41.8482 713.83 43.1604 714.445 44.645C715.06 46.1296 715.375 47.7941 715.39 49.6386C715.375 52.5478 714.64 55.0447 713.185 57.1291C711.731 59.2135 709.639 60.8106 706.91 61.9203C704.195 63.03 700.919 63.5848 697.08 63.5848C693.226 63.5848 689.867 63.0075 687.003 61.8528C684.138 60.6981 681.911 58.9436 680.322 56.5892C678.732 54.2349 677.915 51.2582 677.87 47.6592H688.532C688.622 49.1438 689.019 50.3809 689.724 51.3707C690.429 52.3604 691.396 53.1102 692.626 53.62C693.871 54.1299 695.31 54.3848 696.945 54.3848C698.444 54.3848 699.719 54.1824 700.769 53.7775C701.833 53.3726 702.651 52.8103 703.221 52.0905C703.79 51.3707 704.083 50.5459 704.098 49.6161C704.083 48.7464 703.813 48.0041 703.288 47.3892C702.763 46.7594 701.953 46.2196 700.859 45.7697C699.779 45.3048 698.399 44.8774 696.72 44.4875L691.906 43.3628C687.917 42.4481 684.776 40.971 682.481 38.9315C680.187 36.8771 679.047 34.1028 679.062 30.6088C679.047 27.7596 679.812 25.2628 681.357 23.1183C682.901 20.9739 685.038 19.3019 687.767 18.1022C690.497 16.9025 693.608 16.3027 697.102 16.3027C700.671 16.3027 703.768 16.91 706.392 18.1247C709.032 19.3244 711.078 21.0114 712.533 23.1858C713.988 25.3602 714.73 27.8795 714.76 30.7438H704.098ZM765.18 39.9663C765.18 45.0349 764.205 49.3312 762.256 52.8553C760.306 56.3793 757.667 59.0561 754.338 60.8856C751.024 62.7151 747.305 63.6298 743.181 63.6298C739.042 63.6298 735.316 62.7076 732.002 60.8631C728.687 59.0186 726.056 56.3418 724.106 52.8328C722.172 49.3087 721.204 45.0199 721.204 39.9663C721.204 34.8976 722.172 30.6013 724.106 27.0773C726.056 23.5532 728.687 20.8764 732.002 19.0469C735.316 17.2174 739.042 16.3027 743.181 16.3027C747.305 16.3027 751.024 17.2174 754.338 19.0469C757.667 20.8764 760.306 23.5532 762.256 27.0773C764.205 30.6013 765.18 34.8976 765.18 39.9663ZM753.798 39.9663C753.798 36.9671 753.371 34.4328 752.516 32.3633C751.676 30.2939 750.462 28.7268 748.872 27.6621C747.297 26.5974 745.4 26.065 743.181 26.065C740.977 26.065 739.08 26.5974 737.49 27.6621C735.9 28.7268 734.678 30.2939 733.824 32.3633C732.984 34.4328 732.564 36.9671 732.564 39.9663C732.564 42.9654 732.984 45.4998 733.824 47.5692C734.678 49.6386 735.9 51.2057 737.49 52.2704C739.08 53.3351 740.977 53.8675 743.181 53.8675C745.4 53.8675 747.297 53.3351 748.872 52.2704C750.462 51.2057 751.676 49.6386 752.516 47.5692C753.371 45.4998 753.798 42.9654 753.798 39.9663ZM862.241 16.9325V63H852.794L834.461 36.4122H834.169V63H823.034V16.9325H832.617L850.747 43.4753H851.129V16.9325H862.241Z" fill="#AF2BBF"/>
<path d="M815.847 39.9663C815.847 45.0349 814.873 49.3312 812.923 52.8553C810.974 56.3793 808.335 59.0561 805.005 60.8856C801.691 62.7151 797.972 63.6298 793.848 63.6298C789.71 63.6298 785.983 62.7076 782.669 60.8631C779.355 59.0186 776.723 56.3418 774.774 52.8328C772.839 49.3087 771.872 45.0199 771.872 39.9663C771.872 34.8976 772.839 30.6013 774.774 27.0773C776.723 23.5532 779.355 20.8764 782.669 19.0469C785.983 17.2174 789.71 16.3027 793.848 16.3027C797.972 16.3027 801.691 17.2174 805.005 19.0469C808.335 20.8764 810.974 23.5532 812.923 27.0773C814.873 30.6013 815.847 34.8976 815.847 39.9663ZM804.466 39.9663C804.466 36.9671 804.038 34.4328 803.183 32.3633C802.344 30.2939 801.129 28.7268 799.539 27.6621C797.965 26.5974 796.068 26.065 793.848 26.065C791.644 26.065 789.747 26.5974 788.158 27.6621C786.568 28.7268 785.346 30.2939 784.491 32.3633C783.651 34.4328 783.231 36.9671 783.231 39.9663C783.231 42.9654 783.651 45.4998 784.491 47.5692C785.346 49.6386 786.568 51.2057 788.158 52.2704C789.747 53.3351 791.644 53.8675 793.848 53.8675C796.068 53.8675 797.965 53.3351 799.539 52.2704C801.129 51.2057 802.344 49.6386 803.183 47.5692C804.038 45.4998 804.466 42.9654 804.466 39.9663Z" fill="#FAFAFA"/>
<g clip-path="url(#clip0_293_746)">
<path d="M795.075 16.0721V64.2882C808.126 64.2882 818.691 53.503 818.691 40.1801C818.691 26.8572 808.126 16.0721 795.075 16.0721Z" fill="#98A6D4"/>
</g>
<g clip-path="url(#clip1_293_746)">
<path d="M795.075 64.2882V16.0721C782.024 16.0721 771.459 26.8572 771.459 40.1801C771.459 53.503 782.024 64.2882 795.075 64.2882Z" fill="#AF2BBF"/>
</g>
<defs>
<clipPath id="clip0_293_746">
<rect width="23.6161" height="48.2162" fill="white" transform="translate(795.075 16.0721)"/>
</clipPath>
<clipPath id="clip1_293_746">
<rect width="23.6161" height="48.2162" fill="white" transform="matrix(-1 0 0 -1 795.075 64.2882)"/>
</clipPath>
</defs>
</svg>
