<svg width="337" height="114" viewBox="0 0 337 114" fill="none" xmlns="http://www.w3.org/2000/svg">
<path d="M2.31179 51V20.4545H14.9297C17.2166 20.4545 19.1903 20.902 20.8509 21.7969C22.5213 22.6818 23.809 23.9197 24.7138 25.5107C25.6186 27.0916 26.071 28.9311 26.071 31.0291C26.071 33.1371 25.6087 34.9815 24.6839 36.5625C23.7692 38.1335 22.4616 39.3516 20.7614 40.2166C19.0611 41.0817 17.0426 41.5142 14.706 41.5142H6.92045V35.6974H13.3338C14.4474 35.6974 15.3771 35.5036 16.1229 35.1158C16.8786 34.728 17.4503 34.1861 17.8381 33.4901C18.2259 32.7841 18.4197 31.9638 18.4197 31.0291C18.4197 30.0845 18.2259 29.2692 17.8381 28.5831C17.4503 27.8871 16.8786 27.3501 16.1229 26.9723C15.3672 26.5945 14.4375 26.4055 13.3338 26.4055H9.6946V51H2.31179ZM58.9877 35.7273C58.9877 39.0881 58.3414 41.9368 57.0488 44.2734C55.7562 46.6101 54.0062 48.3849 51.7988 49.598C49.6014 50.8111 47.1355 51.4176 44.4011 51.4176C41.6568 51.4176 39.1859 50.8061 36.9884 49.5831C34.791 48.3601 33.046 46.5852 31.7534 44.2585C30.4707 41.9219 29.8293 39.0781 29.8293 35.7273C29.8293 32.3665 30.4707 29.5178 31.7534 27.1811C33.046 24.8445 34.791 23.0696 36.9884 21.8565C39.1859 20.6435 41.6568 20.0369 44.4011 20.0369C47.1355 20.0369 49.6014 20.6435 51.7988 21.8565C54.0062 23.0696 55.7562 24.8445 57.0488 27.1811C58.3414 29.5178 58.9877 32.3665 58.9877 35.7273ZM51.4409 35.7273C51.4409 33.7386 51.1575 32.0582 50.5907 30.6861C50.0339 29.3139 49.2285 28.2749 48.1745 27.5689C47.1305 26.8629 45.8727 26.5099 44.4011 26.5099C42.9394 26.5099 41.6816 26.8629 40.6276 27.5689C39.5737 28.2749 38.7633 29.3139 38.1965 30.6861C37.6397 32.0582 37.3613 33.7386 37.3613 35.7273C37.3613 37.7159 37.6397 39.3963 38.1965 40.7685C38.7633 42.1406 39.5737 43.1797 40.6276 43.8857C41.6816 44.5916 42.9394 44.9446 44.4011 44.9446C45.8727 44.9446 47.1305 44.5916 48.1745 43.8857C49.2285 43.1797 50.0339 42.1406 50.5907 40.7685C51.1575 39.3963 51.4409 37.7159 51.4409 35.7273ZM63.7453 51V20.4545H76.3632C78.6502 20.4545 80.6239 20.8672 82.2844 21.6925C83.9549 22.5078 85.2425 23.6811 86.1473 25.2124C87.0522 26.7337 87.5046 28.5384 87.5046 30.6264C87.5046 32.7443 87.0422 34.544 86.1175 36.0256C85.1928 37.4972 83.8803 38.6207 82.18 39.3963C80.4797 40.1619 78.4662 40.5447 76.1395 40.5447H68.1601V34.728H74.7674C75.881 34.728 76.8107 34.5838 77.5564 34.2955C78.3121 33.9972 78.8838 33.5497 79.2716 32.9531C79.6594 32.3466 79.8533 31.571 79.8533 30.6264C79.8533 29.6818 79.6594 28.9013 79.2716 28.2848C78.8838 27.6584 78.3121 27.1911 77.5564 26.8828C76.8007 26.5646 75.8711 26.4055 74.7674 26.4055H71.1282V51H63.7453ZM80.9421 37.0398L88.5486 51H80.4946L73.0372 37.0398H80.9421ZM91.0019 26.4503V20.4545H116.819V26.4503H107.557V51H100.279V26.4503H91.0019ZM120.872 51V20.4545H141.723V26.4503H128.255V32.7145H140.396V38.7251H128.255V51H120.872ZM174.718 35.7273C174.718 39.0881 174.072 41.9368 172.779 44.2734C171.487 46.6101 169.737 48.3849 167.529 49.598C165.332 50.8111 162.866 51.4176 160.131 51.4176C157.387 51.4176 154.916 50.8061 152.719 49.5831C150.521 48.3601 148.776 46.5852 147.484 44.2585C146.201 41.9219 145.56 39.0781 145.56 35.7273C145.56 32.3665 146.201 29.5178 147.484 27.1811C148.776 24.8445 150.521 23.0696 152.719 21.8565C154.916 20.6435 157.387 20.0369 160.131 20.0369C162.866 20.0369 165.332 20.6435 167.529 21.8565C169.737 23.0696 171.487 24.8445 172.779 27.1811C174.072 29.5178 174.718 32.3665 174.718 35.7273ZM167.171 35.7273C167.171 33.7386 166.888 32.0582 166.321 30.6861C165.764 29.3139 164.959 28.2749 163.905 27.5689C162.861 26.8629 161.603 26.5099 160.131 26.5099C158.67 26.5099 157.412 26.8629 156.358 27.5689C155.304 28.2749 154.494 29.3139 153.927 30.6861C153.37 32.0582 153.092 33.7386 153.092 35.7273C153.092 37.7159 153.37 39.3963 153.927 40.7685C154.494 42.1406 155.304 43.1797 156.358 43.8857C157.412 44.5916 158.67 44.9446 160.131 44.9446C161.603 44.9446 162.861 44.5916 163.905 43.8857C164.959 43.1797 165.764 42.1406 166.321 40.7685C166.888 39.3963 167.171 37.7159 167.171 35.7273ZM179.476 51V20.4545H186.859V45.0043H199.566V51H179.476ZM211.218 20.4545V51H203.835V20.4545H211.218ZM245.13 35.7273C245.13 39.0881 244.484 41.9368 243.191 44.2734C241.899 46.6101 240.149 48.3849 237.941 49.598C235.744 50.8111 233.278 51.4176 230.544 51.4176C227.799 51.4176 225.328 50.8061 223.131 49.5831C220.933 48.3601 219.188 46.5852 217.896 44.2585C216.613 41.9219 215.972 39.0781 215.972 35.7273C215.972 32.3665 216.613 29.5178 217.896 27.1811C219.188 24.8445 220.933 23.0696 223.131 21.8565C225.328 20.6435 227.799 20.0369 230.544 20.0369C233.278 20.0369 235.744 20.6435 237.941 21.8565C240.149 23.0696 241.899 24.8445 243.191 27.1811C244.484 29.5178 245.13 32.3665 245.13 35.7273ZM237.583 35.7273C237.583 33.7386 237.3 32.0582 236.733 30.6861C236.176 29.3139 235.371 28.2749 234.317 27.5689C233.273 26.8629 232.015 26.5099 230.544 26.5099C229.082 26.5099 227.824 26.8629 226.77 27.5689C225.716 28.2749 224.906 29.3139 224.339 30.6861C223.782 32.0582 223.504 33.7386 223.504 35.7273C223.504 37.7159 223.782 39.3963 224.339 40.7685C224.906 42.1406 225.716 43.1797 226.77 43.8857C227.824 44.5916 229.082 44.9446 230.544 44.9446C232.015 44.9446 233.273 44.5916 234.317 43.8857C235.371 43.1797 236.176 42.1406 236.733 40.7685C237.3 39.3963 237.583 37.7159 237.583 35.7273ZM30.0384 74.5213H22.581C22.4815 73.7557 22.2777 73.0646 21.9695 72.4482C21.6612 71.8317 21.2536 71.3047 20.7464 70.8672C20.2393 70.4297 19.6378 70.0966 18.9418 69.8679C18.2557 69.6293 17.495 69.5099 16.6598 69.5099C15.1783 69.5099 13.9006 69.8729 12.8267 70.5987C11.7628 71.3246 10.9425 72.3736 10.3658 73.7457C9.79901 75.1179 9.51562 76.7784 9.51562 78.7273C9.51562 80.7557 9.80398 82.456 10.3807 83.8281C10.9673 85.1903 11.7876 86.2195 12.8416 86.9155C13.9055 87.6016 15.1634 87.9446 16.6151 87.9446C17.4304 87.9446 18.1712 87.8402 18.8374 87.6314C19.5135 87.4226 20.1051 87.1193 20.6122 86.7216C21.1293 86.3139 21.5518 85.8217 21.88 85.245C22.218 84.6584 22.4517 83.9972 22.581 83.2614L30.0384 83.3061C29.9091 84.6584 29.5163 85.9908 28.8601 87.3033C28.2138 88.6158 27.3239 89.8139 26.1903 90.8977C25.0568 91.9716 23.6747 92.8267 22.044 93.4631C20.4233 94.0994 18.5639 94.4176 16.4659 94.4176C13.7017 94.4176 11.2259 93.8111 9.03835 92.598C6.8608 91.375 5.14063 89.5952 3.87784 87.2585C2.61506 84.9219 1.98366 82.0781 1.98366 78.7273C1.98366 75.3665 2.625 72.5178 3.90767 70.1811C5.19034 67.8445 6.92543 66.0696 9.11293 64.8565C11.3004 63.6435 13.7514 63.0369 16.4659 63.0369C18.3153 63.0369 20.0256 63.2955 21.5966 63.8125C23.1676 64.3196 24.5497 65.0653 25.7429 66.0497C26.9361 67.0241 27.9055 68.2223 28.6513 69.6442C29.397 71.0661 29.8594 72.6918 30.0384 74.5213ZM63.5405 78.7273C63.5405 82.0881 62.8942 84.9368 61.6015 87.2734C60.3089 89.6101 58.5589 91.3849 56.3515 92.598C54.1541 93.8111 51.6882 94.4176 48.9538 94.4176C46.2095 94.4176 43.7386 93.8061 41.5412 92.5831C39.3437 91.3601 37.5987 89.5852 36.3061 87.2585C35.0234 84.9219 34.3821 82.0781 34.3821 78.7273C34.3821 75.3665 35.0234 72.5178 36.3061 70.1811C37.5987 67.8445 39.3437 66.0696 41.5412 64.8565C43.7386 63.6435 46.2095 63.0369 48.9538 63.0369C51.6882 63.0369 54.1541 63.6435 56.3515 64.8565C58.5589 66.0696 60.3089 67.8445 61.6015 70.1811C62.8942 72.5178 63.5405 75.3665 63.5405 78.7273ZM55.9936 78.7273C55.9936 76.7386 55.7102 75.0582 55.1434 73.6861C54.5866 72.3139 53.7812 71.2749 52.7273 70.5689C51.6832 69.8629 50.4254 69.5099 48.9538 69.5099C47.4922 69.5099 46.2344 69.8629 45.1804 70.5689C44.1264 71.2749 43.316 72.3139 42.7493 73.6861C42.1924 75.0582 41.914 76.7386 41.914 78.7273C41.914 80.7159 42.1924 82.3963 42.7493 83.7685C43.316 85.1406 44.1264 86.1797 45.1804 86.8857C46.2344 87.5916 47.4922 87.9446 48.9538 87.9446C50.4254 87.9446 51.6832 87.5916 52.7273 86.8857C53.7812 86.1797 54.5866 85.1406 55.1434 83.7685C55.7102 82.3963 55.9936 80.7159 55.9936 78.7273ZM68.2981 63.4545H77.4408L85.1965 82.3665H85.5545L93.3101 63.4545H102.453V94H95.264V75.2372H95.0104L87.6724 93.8061H83.0786L75.7405 75.1328H75.487V94H68.2981V63.4545ZM114.888 63.4545V94H107.505V63.4545H114.888ZM145.966 63.4545V94H139.702L127.547 76.3707H127.353V94H119.97V63.4545H126.324L138.345 81.054H138.598V63.4545H145.966ZM171.101 73.4325C170.932 72.8061 170.684 72.2543 170.356 71.777C170.027 71.2898 169.625 70.8771 169.147 70.5391C168.67 70.201 168.123 69.9474 167.507 69.7784C166.89 69.5994 166.214 69.5099 165.478 69.5099C163.997 69.5099 162.714 69.8679 161.63 70.5838C160.557 71.2997 159.726 72.3437 159.14 73.7159C158.553 75.0781 158.26 76.7337 158.26 78.6825C158.26 80.6413 158.543 82.3118 159.11 83.6939C159.677 85.076 160.497 86.13 161.571 86.8558C162.645 87.5817 163.947 87.9446 165.478 87.9446C166.831 87.9446 167.974 87.7259 168.909 87.2884C169.853 86.8409 170.569 86.2095 171.057 85.3942C171.544 84.5788 171.787 83.6193 171.787 82.5156L173.16 82.6797H165.732V77.2955H178.902V81.3374C178.902 84.0717 178.32 86.4134 177.157 88.3622C176.003 90.3111 174.412 91.8075 172.384 92.8516C170.365 93.8956 168.044 94.4176 165.419 94.4176C162.505 94.4176 159.945 93.7862 157.738 92.5234C155.53 91.2607 153.81 89.4609 152.577 87.1243C151.344 84.7777 150.728 81.9936 150.728 78.772C150.728 76.2663 151.101 74.044 151.846 72.1051C152.592 70.1562 153.631 68.5057 154.963 67.1534C156.306 65.8011 157.857 64.777 159.617 64.081C161.387 63.3849 163.291 63.0369 165.329 63.0369C167.099 63.0369 168.745 63.2905 170.266 63.7976C171.797 64.3047 173.15 65.0206 174.323 65.9453C175.506 66.87 176.466 67.9688 177.201 69.2415C177.937 70.5142 178.395 71.9112 178.574 73.4325H171.101ZM209.682 72.6122C209.582 71.5185 209.14 70.6683 208.354 70.0618C207.579 69.4453 206.47 69.1371 205.028 69.1371C204.074 69.1371 203.278 69.2614 202.642 69.5099C202.006 69.7585 201.528 70.1016 201.21 70.5391C200.892 70.9666 200.728 71.4588 200.718 72.0156C200.698 72.473 200.787 72.8757 200.986 73.2237C201.195 73.5717 201.493 73.88 201.881 74.1484C202.279 74.407 202.756 74.6357 203.313 74.8345C203.87 75.0334 204.496 75.2074 205.192 75.3565L207.817 75.9531C209.329 76.2812 210.661 76.7188 211.814 77.2656C212.978 77.8125 213.952 78.4638 214.738 79.2195C215.533 79.9751 216.135 80.8452 216.542 81.8295C216.95 82.8139 217.159 83.9176 217.169 85.1406C217.159 87.0696 216.672 88.7251 215.707 90.1072C214.743 91.4893 213.356 92.5483 211.546 93.2841C209.746 94.0199 207.574 94.3878 205.028 94.3878C202.473 94.3878 200.246 94.005 198.346 93.2393C196.447 92.4737 194.971 91.3104 193.917 89.7493C192.863 88.1882 192.321 86.2145 192.291 83.8281H199.361C199.42 84.8125 199.684 85.6328 200.151 86.2891C200.618 86.9453 201.26 87.4425 202.075 87.7805C202.9 88.1186 203.855 88.2876 204.939 88.2876C205.933 88.2876 206.778 88.1534 207.474 87.8849C208.18 87.6165 208.722 87.2436 209.1 86.7663C209.478 86.2891 209.672 85.7422 209.682 85.1257C209.672 84.549 209.493 84.0568 209.145 83.6491C208.797 83.2315 208.26 82.8736 207.534 82.5753C206.818 82.267 205.903 81.9837 204.79 81.7251L201.598 80.9794C198.953 80.3729 196.87 79.3935 195.349 78.0412C193.827 76.679 193.072 74.8395 193.082 72.5227C193.072 70.6335 193.579 68.978 194.603 67.5561C195.627 66.1342 197.044 65.0256 198.854 64.2301C200.663 63.4347 202.726 63.0369 205.043 63.0369C207.41 63.0369 209.463 63.4396 211.203 64.245C212.953 65.0405 214.31 66.1591 215.275 67.6009C216.239 69.0426 216.731 70.7131 216.751 72.6122H209.682ZM250.175 78.7273C250.175 82.0881 249.529 84.9368 248.236 87.2734C246.944 89.6101 245.194 91.3849 242.986 92.598C240.789 93.8111 238.323 94.4176 235.588 94.4176C232.844 94.4176 230.373 93.8061 228.176 92.5831C225.978 91.3601 224.233 89.5852 222.941 87.2585C221.658 84.9219 221.017 82.0781 221.017 78.7273C221.017 75.3665 221.658 72.5178 222.941 70.1811C224.233 67.8445 225.978 66.0696 228.176 64.8565C230.373 63.6435 232.844 63.0369 235.588 63.0369C238.323 63.0369 240.789 63.6435 242.986 64.8565C245.194 66.0696 246.944 67.8445 248.236 70.1811C249.529 72.5178 250.175 75.3665 250.175 78.7273ZM242.628 78.7273C242.628 76.7386 242.345 75.0582 241.778 73.6861C241.221 72.3139 240.416 71.2749 239.362 70.5689C238.318 69.8629 237.06 69.5099 235.588 69.5099C234.127 69.5099 232.869 69.8629 231.815 70.5689C230.761 71.2749 229.951 72.3139 229.384 73.6861C228.827 75.0582 228.549 76.7386 228.549 78.7273C228.549 80.7159 228.827 82.3963 229.384 83.7685C229.951 85.1406 230.761 86.1797 231.815 86.8857C232.869 87.5916 234.127 87.9446 235.588 87.9446C237.06 87.9446 238.318 87.5916 239.362 86.8857C240.416 86.1797 241.221 85.1406 241.778 83.7685C242.345 82.3963 242.628 80.7159 242.628 78.7273ZM283.763 78.7273C283.763 82.0881 283.117 84.9368 281.824 87.2734C280.531 89.6101 278.781 91.3849 276.574 92.598C274.377 93.8111 271.911 94.4176 269.176 94.4176C266.432 94.4176 263.961 93.8061 261.764 92.5831C259.566 91.3601 257.821 89.5852 256.529 87.2585C255.246 84.9219 254.605 82.0781 254.605 78.7273C254.605 75.3665 255.246 72.5178 256.529 70.1811C257.821 67.8445 259.566 66.0696 261.764 64.8565C263.961 63.6435 266.432 63.0369 269.176 63.0369C271.911 63.0369 274.377 63.6435 276.574 64.8565C278.781 66.0696 280.531 67.8445 281.824 70.1811C283.117 72.5178 283.763 75.3665 283.763 78.7273ZM276.216 78.7273C276.216 76.7386 275.933 75.0582 275.366 73.6861C274.809 72.3139 274.004 71.2749 272.95 70.5689C271.906 69.8629 270.648 69.5099 269.176 69.5099C267.715 69.5099 266.457 69.8629 265.403 70.5689C264.349 71.2749 263.539 72.3139 262.972 73.6861C262.415 75.0582 262.137 76.7386 262.137 78.7273C262.137 80.7159 262.415 82.3963 262.972 83.7685C263.539 85.1406 264.349 86.1797 265.403 86.8857C266.457 87.5916 267.715 87.9446 269.176 87.9446C270.648 87.9446 271.906 87.5916 272.95 86.8857C274.004 86.1797 274.809 85.1406 275.366 83.7685C275.933 82.3963 276.216 80.7159 276.216 78.7273ZM314.517 63.4545V94H308.253L296.097 76.3707H295.903V94H288.521V63.4545H294.874L306.896 81.054H307.149V63.4545H314.517Z" fill="#AF2BBF"/>
<g clip-path="url(#clip0_305_745)">
<path d="M269.526 62.4905V94.9992C278.325 94.9992 285.448 87.7275 285.448 78.7448C285.448 69.7622 278.325 62.4905 269.526 62.4905Z" fill="#98A6D4"/>
</g>
<g clip-path="url(#clip1_305_745)">
<path d="M269.526 94.9987V62.49C260.727 62.49 253.603 69.7617 253.603 78.7443C253.603 87.727 260.727 94.9987 269.526 94.9987Z" fill="#AF2BBF"/>
</g>
<defs>
<clipPath id="clip0_305_745">
<rect width="15.9226" height="32.5087" fill="white" transform="translate(269.526 62.4905)"/>
</clipPath>
<clipPath id="clip1_305_745">
<rect width="15.9226" height="32.5087" fill="white" transform="matrix(-1 0 0 -1 269.526 94.9989)"/>
</clipPath>
</defs>
</svg>
